<?xml version="1.0" standalone="no"?>
<!DOCTYPE svg PUBLIC "-//W3C//DTD SVG 20010904//EN"
 "http://www.w3.org/TR/2001/REC-SVG-20010904/DTD/svg10.dtd">
<svg version="1.0" xmlns="http://www.w3.org/2000/svg"
 width="347.000000pt" height="360.000000pt" viewBox="0 0 347.000000 360.000000"
 preserveAspectRatio="xMidYMid meet">

<g transform="translate(0.000000,360.000000) scale(0.100000,-0.100000)"
fill="#ffffff" stroke="none">
<path d="M1435 3450 c-331 -62 -624 -214 -869 -450 -214 -207 -372 -470 -450
-750 -72 -257 -74 -622 -5 -880 162 -606 656 -1074 1277 -1211 151 -33 475
-38 635 -10 360 65 674 233 926 497 302 317 461 715 461 1156 0 271 -55 509
-169 736 -242 481 -689 818 -1210 912 -154 27 -448 27 -596 0z m580 -319 c121
-27 213 -59 325 -116 108 -54 240 -142 240 -160 0 -28 -199 -196 -340 -288
-90 -58 -289 -162 -296 -154 -2 2 -36 60 -75 128 -83 145 -228 366 -322 493
-38 50 -63 94 -59 98 32 32 379 31 527 -1z m-784 -208 c126 -164 272 -381 372
-555 25 -43 35 -78 22 -78 -3 0 -38 -9 -78 -19 -176 -47 -414 -88 -637 -110
-346 -35 -490 -40 -490 -17 0 25 61 188 97 261 116 232 316 443 548 578 33 20
67 36 75 36 9 1 49 -43 91 -96z m1625 -355 c119 -166 213 -422 230 -625 8 -97
16 -92 -112 -69 -168 31 -289 39 -505 33 -118 -4 -228 -9 -244 -12 -30 -7 -30
-6 -82 111 -29 65 -52 118 -50 119 1 1 56 30 122 65 203 106 448 281 559 399
17 17 33 31 37 31 4 0 24 -24 45 -52z m-1025 -643 c21 -47 39 -91 39 -99 0 -8
-33 -25 -77 -41 -191 -67 -381 -172 -573 -316 -133 -100 -365 -323 -470 -451
-34 -43 -65 -78 -67 -78 -7 0 -56 60 -96 119 -81 118 -148 281 -182 442 -18
88 -36 291 -26 300 3 4 100 12 216 18 461 27 854 87 1125 175 25 8 51 14 58
15 7 1 31 -37 53 -84z m1004 -351 c61 -8 137 -20 170 -27 59 -12 60 -13 56
-42 -6 -58 -71 -237 -118 -328 -26 -51 -80 -136 -120 -189 -73 -96 -245 -268
-270 -268 -13 0 -16 9 -33 95 -6 28 -15 75 -21 105 -18 94 -87 351 -125 471
-49 157 -54 172 -54 186 0 25 323 23 515 -3z m-824 -92 c82 -215 238 -849 227
-924 -2 -19 -16 -27 -83 -50 -149 -50 -236 -63 -420 -63 -240 0 -416 41 -610
141 -86 44 -205 120 -205 130 0 11 128 161 215 252 164 172 388 343 569 434
98 49 277 118 289 111 4 -3 13 -17 18 -31z"/>
</g>
</svg>
