<?xml version="1.0" standalone="no"?>
<!DOCTYPE svg PUBLIC "-//W3C//DTD SVG 20010904//EN"
 "http://www.w3.org/TR/2001/REC-SVG-20010904/DTD/svg10.dtd">
<svg version="1.0" xmlns="http://www.w3.org/2000/svg"
 width="546.000000pt" height="567.000000pt" viewBox="0 0 546.000000 567.000000"
 preserveAspectRatio="xMidYMid meet">

<g transform="translate(0.000000,567.000000) scale(0.100000,-0.100000)"
fill="#ffffff" stroke="none">
<path d="M1488 5579 c-121 -12 -270 -43 -375 -80 -128 -44 -314 -139 -423
-216 -120 -86 -306 -271 -387 -386 -124 -177 -223 -403 -274 -632 l-23 -100
-4 -1245 c-2 -886 0 -1274 8 -1345 63 -546 403 -1032 895 -1275 205 -102 360
-148 574 -169 137 -14 2381 -15 2506 -1 374 42 702 193 963 444 256 247 407
516 484 866 l23 105 0 1310 0 1310 -23 102 c-161 730 -743 1248 -1474 1313
-137 12 -2343 11 -2470 -1z m2489 -530 c222 -31 439 -138 608 -300 170 -163
271 -339 328 -567 21 -86 21 -100 25 -1267 2 -857 0 -1206 -8 -1275 -38 -306
-199 -584 -445 -769 -95 -71 -268 -155 -390 -189 l-100 -27 -1265 0 -1265 0
-98 27 c-201 55 -374 158 -519 305 -181 186 -289 412 -317 666 -15 132 -15
2272 0 2404 48 432 344 802 754 942 177 61 141 59 1432 60 800 1 1207 -3 1260
-10z"/>
<path d="M4041 4558 c-66 -25 -143 -99 -174 -166 -18 -38 -22 -65 -22 -137 1
-78 5 -97 28 -142 36 -69 88 -120 156 -152 78 -36 202 -37 276 -1 64 31 131
98 157 158 33 72 36 182 7 257 -62 165 -257 249 -428 183z"/>
<path d="M2530 4155 c-321 -51 -635 -230 -831 -473 -147 -182 -236 -369 -286
-594 -25 -118 -25 -419 1 -538 39 -181 103 -334 200 -480 193 -288 479 -486
826 -571 84 -21 119 -23 300 -23 181 0 216 2 300 23 469 115 835 447 984 892
49 147 61 231 61 424 0 199 -9 263 -61 425 -153 481 -577 838 -1084 915 -116
18 -296 18 -410 0z m419 -506 c300 -76 539 -317 622 -624 17 -61 22 -109 22
-205 1 -132 -12 -198 -58 -316 -96 -246 -320 -444 -582 -516 -111 -30 -315
-30 -426 0 -285 78 -512 295 -602 574 -100 312 -14 645 226 874 219 208 511
286 798 213z"/>
</g>
</svg>
