<?xml version="1.0" encoding="utf-8"?>
<!-- Generator: Adobe Illustrator 21.0.0, SVG Export Plug-In . SVG Version: 6.00 Build 0)  -->
<svg version="1.1" xmlns="http://www.w3.org/2000/svg" xmlns:xlink="http://www.w3.org/1999/xlink" x="0px" y="0px"
	 viewBox="0 0 663.113 605.699" enable-background="new 0 0 663.113 605.699" xml:space="preserve">
<g id="INFO">
</g>
<g id="TEXT_LOGO">
</g>
<g id="LOGO">
	<g>
		<text transform="matrix(1 0 0 1 424.8698 567.9849)" fill="#1D1D1B" font-family="'MasterOfBreak'" font-size="5.5574px"> </text>
	</g>
	<g>
		<text transform="matrix(1 0 0 1 418.9348 562.0341)" fill="#1D1D1B" font-family="'MasterOfBreak'" font-size="5.5574px"> </text>
	</g>
	<g>
		<text transform="matrix(1 0 0 1 423.6354 565.562)" fill="#1D1D1B" font-family="'MasterOfBreak'" font-size="5.5574px"> </text>
	</g>
	<g>
		<polygon fill="none" stroke="#2B2B2A" stroke-width="36.295" stroke-miterlimit="10" points="175.298,302.958 292.465,400.869 
			292.465,205.047 		"/>
		<polygon fill="none" stroke="#2B2B2A" stroke-width="36.295" stroke-miterlimit="10" points="475.466,302.958 358.299,205.047 
			358.299,400.869 		"/>
		<path fill="#FFFFFF" d="M503.768,302.959h-0.002l-127.32-106.397v-0.001l-36.293-30.328l0,226.25l-29.54,24.663l0-275.645
			l-36.294-30.385l0,85.445L146.996,302.959l127.321,106.396l0,85.38l36.295-30.305v-0.001l29.54-24.664v0.002l36.294-30.415v0.002
			L503.768,302.959z M203.598,302.96L203.598,302.96l70.72-59.099l0,118.195L203.598,302.96z M447.164,302.959L447.164,302.959
			l-70.717,59.093l-0.001-118.192L447.164,302.959z"/>
	</g>
</g>
</svg>
